<svg data-v-423bf9ae="" xmlns="http://www.w3.org/2000/svg" viewBox="0 0 591.6279213519882 177" class="iconAbove"><!----><!----><!----><g data-v-423bf9ae="" id="dbdc7803-d805-41ab-9aff-a00ad1c49984" fill="white" transform="matrix(4.501125307082416,0,0,4.501125307082416,-1.8454608577363274,98.5099478194158)"><path d="M5.05 14.35L6.29 9.06L6.78 6.92L6.82 6.92L7.29 9.06L8.53 14.35L10.95 14.35L13.22 4.58L11.20 4.58L10.26 9.27L9.74 11.98L9.70 11.98L9.10 9.27L8.01 4.58L5.68 4.58L4.61 9.27L3.99 11.98L3.95 11.98L3.43 9.27L2.51 4.58L0.41 4.58L2.62 14.35ZM17.30 14.52C18.65 14.52 19.73 14.06 20.38 13.30L19.35 12.01C18.89 12.49 18.41 12.89 17.54 12.89C16.44 12.89 15.92 12.28 15.92 11.31L15.92 11.20L20.64 11.20L20.64 10.58C20.64 8.60 19.66 6.83 17.22 6.83C15.01 6.83 13.78 8.34 13.78 10.67C13.78 13.02 15.05 14.52 17.30 14.52ZM17.26 8.36C18.09 8.36 18.49 8.96 18.49 9.86L18.49 9.98L15.92 9.98L15.92 9.87C15.92 8.96 16.44 8.36 17.26 8.36ZM28.69 14.35L28.69 12.74L28 12.74L28 9.52C28 7.78 26.94 6.83 24.86 6.83C23.32 6.83 22.48 7.36 21.90 8.23L23.13 9.32C23.45 8.88 23.88 8.46 24.71 8.46C25.58 8.46 25.93 8.90 25.93 9.62L25.93 10.08L24.77 10.08C22.82 10.08 21.62 10.82 21.62 12.38C21.62 13.65 22.43 14.52 23.90 14.52C25.02 14.52 25.83 14.01 26.05 13.06L26.14 13.06C26.26 13.85 26.80 14.35 27.54 14.35ZM24.67 13.08C24.05 13.08 23.70 12.82 23.70 12.29L23.70 12.08C23.70 11.55 24.12 11.26 24.92 11.26L25.93 11.26L25.93 12.12C25.93 12.80 25.35 13.08 24.67 13.08ZM33.07 14.35L33.07 12.74L32.14 12.74L32.14 3.99L30.07 3.99L30.07 12.33C30.07 13.64 30.72 14.35 32.13 14.35ZM38.05 14.35L38.05 12.74L36.71 12.74L36.71 8.61L38.16 8.61L38.16 7.00L36.71 7.00L36.71 5.01L34.85 5.01L34.85 6.22C34.85 6.72 34.68 7.00 34.12 7.00L33.60 7.00L33.60 8.61L34.64 8.61L34.64 12.21C34.64 13.61 35.39 14.35 36.82 14.35ZM39.61 14.35L41.68 14.35L41.68 9.59C41.68 8.86 42.34 8.51 43.01 8.51C43.76 8.51 44.03 8.97 44.03 9.91L44.03 14.35L46.10 14.35L46.10 9.74C46.10 7.90 45.30 6.83 43.81 6.83C42.64 6.83 42.03 7.48 41.76 8.25L41.68 8.25L41.68 3.99L39.61 3.99ZM55.37 14.35L57.37 14.35L57.37 4.58L55.10 4.58L52.74 9.16L52.71 9.16L50.32 4.58L48.06 4.58L48.06 14.35L50.06 14.35L50.06 7.84L50.11 7.84L50.85 9.38L52.71 12.82L54.61 9.37L55.33 7.94L55.37 7.94ZM66.00 14.35L66.00 12.74L65.31 12.74L65.31 9.52C65.31 7.78 64.25 6.83 62.17 6.83C60.63 6.83 59.79 7.36 59.21 8.23L60.44 9.32C60.76 8.88 61.19 8.46 62.02 8.46C62.89 8.46 63.24 8.90 63.24 9.62L63.24 10.08L62.08 10.08C60.13 10.08 58.93 10.82 58.93 12.38C58.93 13.65 59.74 14.52 61.21 14.52C62.33 14.52 63.14 14.01 63.36 13.06L63.45 13.06C63.57 13.85 64.11 14.35 64.85 14.35ZM61.98 13.08C61.36 13.08 61.01 12.82 61.01 12.29L61.01 12.08C61.01 11.55 61.43 11.26 62.23 11.26L63.24 11.26L63.24 12.12C63.24 12.80 62.66 13.08 61.98 13.08ZM69.45 14.35L69.45 9.59C69.45 8.86 70.11 8.51 70.78 8.51C71.54 8.51 71.81 8.97 71.81 9.91L71.81 14.35L73.88 14.35L73.88 9.74C73.88 7.90 73.08 6.83 71.58 6.83C70.42 6.83 69.80 7.48 69.54 8.25L69.45 8.25L69.45 7.00L67.38 7.00L67.38 14.35ZM82.31 14.35L82.31 12.74L81.62 12.74L81.62 9.52C81.62 7.78 80.56 6.83 78.48 6.83C76.94 6.83 76.10 7.36 75.52 8.23L76.75 9.32C77.07 8.88 77.50 8.46 78.33 8.46C79.20 8.46 79.55 8.90 79.55 9.62L79.55 10.08L78.39 10.08C76.44 10.08 75.24 10.82 75.24 12.38C75.24 13.65 76.05 14.52 77.52 14.52C78.64 14.52 79.45 14.01 79.67 13.06L79.76 13.06C79.88 13.85 80.42 14.35 81.16 14.35ZM78.29 13.08C77.67 13.08 77.32 12.82 77.32 12.29L77.32 12.08C77.32 11.55 77.74 11.26 78.54 11.26L79.55 11.26L79.55 12.12C79.55 12.80 78.97 13.08 78.29 13.08ZM90.50 14.88C90.50 13.52 89.73 12.74 87.93 12.74L85.81 12.74C85.18 12.74 84.92 12.53 84.92 12.18C84.92 11.93 85.05 11.72 85.25 11.59C85.62 11.69 86.06 11.75 86.55 11.75C88.68 11.75 89.70 10.78 89.70 9.31C89.70 8.37 89.29 7.62 88.44 7.21L88.44 7.13L90.06 7.13L90.06 5.59L88.90 5.59C88.20 5.59 87.79 5.92 87.79 6.69L87.79 6.97C87.43 6.87 87.01 6.83 86.55 6.83C84.43 6.83 83.40 7.83 83.40 9.31C83.40 10.26 83.83 11.00 84.71 11.41L84.71 11.47C84.03 11.61 83.34 12.00 83.34 12.77C83.34 13.40 83.71 13.93 84.41 14.06L84.41 14.21C83.55 14.32 83.03 14.80 83.03 15.61C83.03 16.67 83.97 17.32 86.52 17.32C89.52 17.32 90.50 16.44 90.50 14.88ZM88.55 15.16C88.55 15.69 88.13 15.95 87.01 15.95L86.17 15.95C85.05 15.95 84.63 15.69 84.63 15.16C84.63 14.94 84.71 14.69 84.90 14.50L87.42 14.50C88.24 14.50 88.55 14.74 88.55 15.16ZM86.55 10.39C85.74 10.39 85.33 10.02 85.33 9.38L85.33 9.21C85.33 8.57 85.74 8.20 86.55 8.20C87.36 8.20 87.77 8.57 87.77 9.21L87.77 9.38C87.77 10.02 87.36 10.39 86.55 10.39ZM94.40 14.52C95.75 14.52 96.82 14.06 97.48 13.30L96.45 12.01C95.98 12.49 95.51 12.89 94.64 12.89C93.53 12.89 93.02 12.28 93.02 11.31L93.02 11.20L97.73 11.20L97.73 10.58C97.73 8.60 96.75 6.83 94.32 6.83C92.11 6.83 90.87 8.34 90.87 10.67C90.87 13.02 92.15 14.52 94.40 14.52ZM94.36 8.36C95.19 8.36 95.59 8.96 95.59 9.86L95.59 9.98L93.02 9.98L93.02 9.87C93.02 8.96 93.53 8.36 94.36 8.36ZM101.28 14.35L101.28 9.59C101.28 8.86 101.89 8.51 102.49 8.51C103.17 8.51 103.50 8.96 103.50 9.91L103.50 14.35L105.57 14.35L105.57 9.59C105.57 8.86 106.18 8.51 106.79 8.51C107.48 8.51 107.80 8.96 107.80 9.91L107.80 14.35L109.87 14.35L109.87 9.74C109.87 7.90 109.09 6.83 107.67 6.83C106.55 6.83 105.70 7.49 105.43 8.32L105.39 8.32C105.07 7.35 104.34 6.83 103.33 6.83C102.24 6.83 101.63 7.46 101.36 8.25L101.28 8.25L101.28 7.00L99.20 7.00L99.20 14.35ZM114.79 14.52C116.13 14.52 117.21 14.06 117.87 13.30L116.83 12.01C116.37 12.49 115.89 12.89 115.02 12.89C113.92 12.89 113.40 12.28 113.40 11.31L113.40 11.20L118.12 11.20L118.12 10.58C118.12 8.60 117.14 6.83 114.70 6.83C112.49 6.83 111.26 8.34 111.26 10.67C111.26 13.02 112.53 14.52 114.79 14.52ZM114.74 8.36C115.57 8.36 115.98 8.96 115.98 9.86L115.98 9.98L113.40 9.98L113.40 9.87C113.40 8.96 113.92 8.36 114.74 8.36ZM121.66 14.35L121.66 9.59C121.66 8.86 122.32 8.51 122.99 8.51C123.75 8.51 124.01 8.97 124.01 9.91L124.01 14.35L126.08 14.35L126.08 9.74C126.08 7.90 125.29 6.83 123.79 6.83C122.63 6.83 122.01 7.48 121.74 8.25L121.66 8.25L121.66 7.00L119.59 7.00L119.59 14.35ZM131.74 14.35L131.74 12.74L130.40 12.74L130.40 8.61L131.85 8.61L131.85 7.00L130.40 7.00L130.40 5.01L128.53 5.01L128.53 6.22C128.53 6.72 128.37 7.00 127.81 7.00L127.29 7.00L127.29 8.61L128.32 8.61L128.32 12.21C128.32 13.61 129.08 14.35 130.51 14.35Z"></path></g><!----><g data-v-423bf9ae="" id="a2f3c996-4e64-469a-bd4e-de79b2a2616c" transform="matrix(1.0722222222222222,0,0,1.0722222222222222,242.1298611111111,-1.8701388888888886)" stroke="none" fill="white"><path d="M50.125 1.875c-26.605 0-48.25 21.645-48.25 48.25s21.645 48.25 48.25 48.25 48.25-21.645 48.25-48.25-21.645-48.25-48.25-48.25zm0 89.292c-22.631 0-41.042-18.411-41.042-41.042S27.494 9.083 50.125 9.083c22.63 0 41.042 18.411 41.042 41.042S72.755 91.167 50.125 91.167z"></path><path d="M56.255 26.355c5.648 0 10.839 2.155 14.894 5.49l1.566-7.24c-4.745-3.08-10.395-5.137-16.46-5.137-13.206 0-24.463 9.032-28.615 20.032H17.23l-1.464 7h10.349c-.121 1-.189 2.035-.189 3.165 0 1.362.1 3.835.273 3.835h-8.826l-1.435 7h11.943c4.336 11 15.206 19.793 28.162 19.793 5.521 0 9.955-1.319 14.955-3.91v-8.358c-5 3.477-9.174 5.416-14.955 5.416-9.091 0-16.777-4.941-20.676-12.941h29.599l1.434-7H33.127c-.226 0-.351-2.465-.351-3.835 0-1.136.086-2.165.242-3.165h34.96L69 40.1v-.6H35.034c3.769-7 11.863-13.145 21.221-13.145z"></path></g><!----></svg>